<?xml version="1.0" encoding="UTF-8" standalone="no"?>
<!-- Created with Inkscape (http://www.inkscape.org/) -->

<svg
   width="200mm"
   height="75mm"
   viewBox="0 0 200 75"
   version="1.1"
   id="svg697"
   xml:space="preserve"
   inkscape:version="1.2.1 (9c6d41e410, 2022-07-14)"
   sodipodi:docname="IEEE_France_Section.svg"
   xmlns:inkscape="http://www.inkscape.org/namespaces/inkscape"
   xmlns:sodipodi="http://sodipodi.sourceforge.net/DTD/sodipodi-0.dtd"
   xmlns="http://www.w3.org/2000/svg"
   xmlns:svg="http://www.w3.org/2000/svg"><sodipodi:namedview
     id="namedview699"
     pagecolor="#ffffff"
     bordercolor="#000000"
     borderopacity="0.25"
     inkscape:showpageshadow="2"
     inkscape:pageopacity="0.0"
     inkscape:pagecheckerboard="0"
     inkscape:deskcolor="#d1d1d1"
     inkscape:document-units="mm"
     showgrid="false"
     inkscape:zoom="0.7652427"
     inkscape:cx="127.41056"
     inkscape:cy="-194.05608"
     inkscape:window-width="2400"
     inkscape:window-height="1261"
     inkscape:window-x="2391"
     inkscape:window-y="-6"
     inkscape:window-maximized="1"
     inkscape:current-layer="layer1" /><defs
     id="defs694" /><g
     inkscape:label="Layer 1"
     inkscape:groupmode="layer"
     id="layer1"
     transform="translate(-7.9992725,-199.72858)"><path
       style="fill:#06417d;stroke:none;stroke-width:0.161326"
       d="m 43.877819,202.77086 c -0.832767,0.44499 -1.440645,1.82772 -1.990445,2.57426 -1.36224,1.84931 -2.860478,3.60064 -4.376946,5.32377 -4.260631,4.84124 -9.039229,9.03847 -13.989419,13.15858 -1.68226,1.40015 -3.363989,2.80321 -5.001116,4.2566 -0.556928,0.49446 -1.565464,1.09685 -1.565464,1.94156 0,0.7884 1.021926,1.27013 1.565464,1.67602 1.523484,1.13783 3.034694,2.29826 4.517137,3.48901 5.881588,4.72428 11.124422,9.97755 15.902911,15.80982 1.331104,1.62472 2.584611,3.31655 3.8386,5.00112 0.437356,0.58738 0.986027,1.61762 1.876226,1.24657 0.825185,-0.34395 1.483074,-1.39612 2.051749,-2.0532 1.436288,-1.66005 2.845797,-3.34349 4.285474,-5.00112 2.115795,-2.43635 4.108983,-5.14679 6.42208,-7.39359 2.475554,-2.40473 5.276825,-4.54763 7.890474,-6.80313 l 5.001118,-4.28741 c 0.511727,-0.44026 1.499851,-1.04701 1.364498,-1.84299 -0.132288,-0.77711 -1.117023,-1.31627 -1.687151,-1.75539 -1.641496,-1.26432 -3.249275,-2.57639 -4.839792,-3.90395 -5.56092,-4.64168 -10.691422,-9.68926 -15.26325,-15.3131 -1.35498,-1.66674 -2.728513,-3.31644 -4.061876,-5.00098 -0.443486,-0.56013 -1.084758,-1.5795 -1.940272,-1.12245 m 33.848857,7.09139 v 30.32936 7.74367 l 0.165843,2.96792 2.576705,0.25861 h 7.421014 V 209.86225 H 77.726676 m 15.971311,0 v 30.97467 7.58234 l 0.258606,2.57671 2.322617,0.16584 h 5.96908 23.39232 v -8.87296 h -21.94039 v -8.38897 h 19.19785 v -8.87294 h -19.19785 v -6.29173 h 20.97243 v -8.87296 H 93.697987 m 36.782413,0 v 41.29956 h 31.78131 v -8.87296 h -21.77907 v -8.38897 h 19.19784 v -6.29172 c 0,-0.60191 0.22957,-1.82331 -0.16584,-2.32262 -0.60497,-0.76388 -3.89942,-0.2586 -4.83528,-0.2586 h -14.19672 v -6.29173 h 20.81111 v -8.87296 H 130.4804 m 36.6211,0 v 41.29956 h 23.8763 5.80775 l 2.09241,-0.25861 0.16616,-2.32262 v -6.29173 h -21.94039 v -8.38897 h 19.19784 v -8.87294 h -19.19784 v -6.29173 h 15.64866 3.71051 l 1.4471,-0.25861 0.16617,-2.32262 v -6.29173 H 167.1015 m -122.769386,0.26353 c 1.040716,0.0234 2.111762,1.02449 2.903875,1.61263 2.007707,1.49081 3.928459,3.04381 5.80775,4.69225 3.118439,2.73545 5.771128,6.0094 8.356707,9.24158 0.881487,1.10202 2.503301,2.59752 2.738515,4.03316 0.334429,2.04175 -2.028034,4.36355 -3.190391,5.80775 -3.405116,4.23126 -7.265495,8.13149 -11.615338,11.39367 -1.23447,0.92586 -3.393177,2.90017 -5.001118,2.93179 -1.731839,0.034 -4.027836,-2.43845 -5.323771,-3.44819 -4.421471,-3.44481 -8.56843,-7.09917 -11.844793,-11.6839 -0.848352,-1.18704 -2.854248,-3.29187 -2.75113,-4.83979 0.0891,-1.33756 1.659352,-2.85887 2.440176,-3.87184 2.5341,-3.28751 5.395201,-6.24317 8.445242,-9.04815 2.007706,-1.84621 4.134471,-3.58441 6.291728,-5.25351 0.770656,-0.59622 1.688603,-1.59116 2.742548,-1.56745 m -0.483979,1.00481 c -1.654563,0.63143 -3.324291,2.45906 -4.678465,3.58453 -3.688246,3.06535 -7.130787,6.30076 -10.203395,9.98916 -0.986719,1.18446 -3.695954,3.69696 -3.6744,5.32377 0.01866,1.40822 1.969696,3.42915 2.771166,4.51714 3.162306,4.29289 7.126221,7.7264 11.267955,11.03472 1.064755,0.85035 3.892322,3.76649 5.323771,3.34559 1.58358,-0.46543 3.219107,-1.96592 4.517139,-2.94711 3.98089,-3.00906 7.489254,-6.64649 10.687227,-10.46524 1.050397,-1.25415 3.759873,-3.82844 3.453676,-5.64642 -0.261672,-1.55261 -2.389083,-3.48837 -3.372368,-4.67847 -3.235239,-3.91587 -6.638096,-7.62074 -10.607209,-10.80871 -1.100407,-0.88382 -3.976211,-3.8248 -5.485097,-3.24896 m 0.483979,4.05543 3.387854,8.71163 h -2.419896 l 0.483979,8.22764 h -2.903874 l 0.322653,-8.22764 h -2.419896 l 2.248083,-4.83979 1.301097,-3.87184 m -3.871833,12.26081 c -2.020774,0.46752 -6.049416,2.42263 -2.740129,4.37517 0.405091,0.23909 0.843253,0.4188 1.288191,0.56852 3.463355,1.1659 9.220288,1.32384 12.421971,-0.66338 0.622719,-0.38654 1.40483,-1.03007 1.257216,-1.86025 -0.167779,-0.94344 -1.679892,-2.37263 -2.547666,-1.61343 l -1.77459,-1.77459 h 2.742549 c 0.07711,0.59368 0.949244,0.75243 1.451937,1.00377 1.363853,0.68193 2.942593,1.77782 2.191296,3.51337 -0.835832,1.93107 -3.211847,2.56477 -5.095171,2.93517 -4.028643,0.79276 -8.786319,0.7513 -12.744784,-0.40331 -1.420482,-0.41429 -3.208622,-0.93989 -4.118339,-2.20921 -1.017969,-1.42064 -0.02164,-2.99115 1.214463,-3.81811 2.015774,-1.34853 4.757355,-2.4007 6.453056,-0.0537 m 5.80775,15.32601 h -3.871834 l 0.322653,-7.58234 2.967922,0.1802 0.258767,1.91704 0.322492,5.4851 m 93.246649,24.84426 c 0,0.87358 -0.33265,2.61526 0.25861,3.32026 0.43832,0.52253 1.36659,0.66095 1.99996,0.77485 2.91856,0.52511 5.59868,-1.32949 6.05958,-4.25644 0.34944,-2.21952 -0.43525,-3.99524 -2.18774,-5.37717 -1.08508,-0.85567 -3.40141,-1.95979 -3.12538,-3.65646 0.41203,-2.53412 3.12312,-0.7876 4.41598,-0.48462 0,-0.84116 0.33815,-2.62285 -0.2586,-3.28316 -0.58126,-0.64305 -1.84089,-0.73984 -2.64527,-0.74936 -2.60735,-0.031 -4.71783,1.28448 -5.11405,4.03252 -0.31458,2.18258 0.45543,4.16431 2.21018,5.50138 1.04813,0.79873 3.53079,1.86575 3.09036,3.53273 -0.62142,2.35181 -3.24685,1.16655 -4.70363,0.64547 m -61.465352,3.87183 h 3.710507 v -7.25968 h 3.387854 v -3.22653 h -3.387854 v -3.54918 h 3.710507 v -3.38786 h -5.162445 c -0.536893,0 -1.551153,-0.18956 -1.999963,0.16585 -0.717741,0.56851 -0.258606,3.48335 -0.258606,4.35129 v 12.90611 m 97.282232,-16.9872 c -2.56428,0.89036 -0.94134,4.81059 1.61085,3.87699 2.70221,-0.98829 1.02603,-4.79284 -1.61085,-3.87699 m -7.2621,2.14515 v 3.22653 h -1.12929 v 2.74255 h 1.12929 v 8.87295 h 3.54918 v -8.87295 h 1.29061 v -2.74255 h -1.29061 v -3.22653 h -3.54918 m -77.275348,4.51714 h -0.161326 v -1.29061 h -3.387854 v 11.6155 h 3.387854 c 0,-3.00148 -1.327878,-8.87021 2.903875,-8.87295 v -3.22653 c -1.196881,0.10518 -2.221787,0.66095 -2.742549,1.77459 m 9.195604,9.1956 h 0.161324 v 1.12929 h 3.38786 v -11.6155 h -3.38786 v 1.12929 c -1.547279,-2.01239 -3.929263,-1.71023 -4.946587,0.6453 -1.037328,2.40166 -0.972798,5.86938 0.159552,8.22764 0.907461,1.88995 3.511269,2.58187 4.625711,0.48398 m 8.872954,-9.03427 h -0.16133 v -1.45194 h -3.54918 v 11.6155 h 3.54918 v -6.61438 c 0.001,-0.58739 0.0126,-1.90656 0.95119,-1.76491 0.80292,0.12131 0.66192,1.3624 0.66208,1.92623 v 6.45306 h 3.54918 c 0,-3.18216 0.74194,-7.45328 -0.28861,-10.48606 -0.7876,-2.31745 -3.87878,-1.45999 -4.71251,0.3225 m 12.74479,6.93703 c -3.8407,1.62488 -3.98283,-6.90332 0,-5.48509 0,-0.7071 0.28571,-2.20646 -0.16585,-2.78643 -0.94505,-1.21447 -3.68421,-0.0776 -4.50568,0.70612 -1.30562,1.24577 -1.75652,3.23185 -1.77863,4.98418 -0.031,2.46668 1.15171,5.82162 4.03026,5.96263 0.62288,0.0305 1.83412,0.18858 2.25405,-0.39913 0.46446,-0.64998 0.16585,-2.20888 0.16585,-2.98228 m 9.67958,-0.48398 c -0.74033,0 -1.68312,-0.15697 -2.39667,0.0513 -0.59303,0.1731 -0.59868,0.93392 -1.17009,1.15752 -1.37112,0.53657 -1.57874,-1.67538 -1.59569,-2.49943 1.14445,0 4.30919,0.55819 5.20407,-0.16585 0.45559,-0.36862 0.29733,-1.41725 0.27474,-1.93139 -0.0936,-2.11564 -1.18059,-4.22563 -3.38156,-4.72993 -5.58045,-1.279 -6.88977,7.7064 -3.9333,10.81177 2.54315,2.6714 6.92381,0.90181 6.9985,-2.69399 m 26.61885,0.16132 c -0.67176,-0.19859 -2.20049,-0.43557 -2.81369,0.004 -0.43913,0.31524 -0.44123,0.96716 -1.06459,1.08637 -1.24625,0.2386 -1.42871,-1.73264 -1.44549,-2.54282 h 5.4851 c 0,-1.74571 0.166,-3.66034 -0.90956,-5.16228 -1.47517,-2.05998 -4.55779,-2.37505 -6.32029,-0.47721 -1.17042,1.26044 -1.55276,3.16232 -1.62632,4.83286 -0.0794,1.8054 0.4943,3.92442 1.92155,5.10759 2.81515,2.33358 6.13041,0.25748 6.77329,-2.84903 m 7.74367,0.32266 c -3.93394,1.43113 -3.9554,-6.70569 0,-5.4851 0,-0.70032 0.28732,-2.21404 -0.16585,-2.78481 -0.94166,-1.18624 -3.69275,-0.072 -4.50568,0.70451 -1.28625,1.22882 -1.78023,3.25315 -1.78023,4.98418 0,2.47636 1.11783,5.81985 4.03187,5.96262 0.62287,0.0305 1.83411,0.18859 2.25404,-0.39912 0.46447,-0.64999 0.16585,-2.20888 0.16585,-2.98228 m 17.58458,-8.6408 c -6.23205,0.97892 -5.17374,13.22488 1.93591,11.97558 1.98109,-0.34815 2.91517,-2.19211 3.25879,-3.98008 0.68242,-3.56823 -0.55012,-8.72502 -5.1947,-7.9955 m 10.32488,1.86509 h -0.16132 v -1.61326 h -3.38786 v 11.6155 h 3.38786 c 0,-2.20243 -0.0549,-4.41276 0.002,-6.61439 0.0145,-0.55254 0.13551,-1.8588 0.96634,-1.76862 0.8631,0.0937 0.80502,1.31933 0.80663,1.92995 v 6.45306 h 3.38786 v -7.09836 c 0,-1.05847 0.20972,-2.38538 -0.18553,-3.3877 -0.93085,-2.36472 -4.01058,-1.40289 -4.81559,0.48382 m -19.19784,-1.61326 v 11.6155 h 3.54918 v -11.6155 h -3.54918 m -45.8167,4.67846 h -2.41989 c 0.0582,-2.80756 2.41199,-2.85483 2.41989,0 m 26.45753,0 c -0.56448,0 -1.69812,0.21408 -2.15887,-0.16584 -1.09185,-0.9002 1.59923,-3.73664 2.10579,-0.96361 0.0676,0.37074 0.0521,0.75437 0.0531,1.12945 m -56.107919,-1.83513 c 0.775334,-0.30459 1.193489,0.58932 1.332719,1.1901 0.24215,1.0454 0.46849,4.08349 -0.742265,4.63201 -0.719677,0.32603 -1.12864,-0.53222 -1.281254,-1.08299 -0.278611,-1.00522 -0.556415,-4.2495 0.6908,-4.73912 m 84.831869,0.006 c 0.75178,-0.23231 1.1067,0.60706 1.23576,1.18381 0.24038,1.06653 0.63079,4.23836 -0.77598,4.71057 -0.74532,0.24973 -1.12283,-0.5882 -1.26802,-1.16139 -0.26619,-1.0554 -0.59046,-4.30032 0.80824,-4.73299 z"
       id="path830" /></g></svg>
