<?xml version="1.0" encoding="UTF-8" standalone="no"?>
<!-- Created with Inkscape (http://www.inkscape.org/) -->

<svg
   width="150mm"
   height="50mm"
   viewBox="0 0 150 50"
   version="1.1"
   id="svg5"
   xml:space="preserve"
   inkscape:version="1.2.1 (9c6d41e410, 2022-07-14)"
   sodipodi:docname="IEEE_ISEP_student_branch.svg"
   xmlns:inkscape="http://www.inkscape.org/namespaces/inkscape"
   xmlns:sodipodi="http://sodipodi.sourceforge.net/DTD/sodipodi-0.dtd"
   xmlns="http://www.w3.org/2000/svg"
   xmlns:svg="http://www.w3.org/2000/svg"><sodipodi:namedview
     id="namedview7"
     pagecolor="#ffffff"
     bordercolor="#000000"
     borderopacity="0.25"
     inkscape:showpageshadow="2"
     inkscape:pageopacity="0.0"
     inkscape:pagecheckerboard="0"
     inkscape:deskcolor="#d1d1d1"
     inkscape:document-units="mm"
     showgrid="false"
     inkscape:zoom="1.7173069"
     inkscape:cx="234.37861"
     inkscape:cy="141.20947"
     inkscape:window-width="2400"
     inkscape:window-height="1261"
     inkscape:window-x="2391"
     inkscape:window-y="-6"
     inkscape:window-maximized="1"
     inkscape:current-layer="layer1" /><defs
     id="defs2" /><g
     inkscape:label="Layer 1"
     inkscape:groupmode="layer"
     id="layer1"
     transform="translate(-19.503718,-105.5613)"><g
       id="g378"
       transform="matrix(1.3316085,0,0,1.3316085,-57.65332,-48.590192)"><path
         style="fill:#cc9300;stroke-width:0.264583"
         d="m 100.51075,149.28214 c 0,-0.21828 0.17859,-0.39688 0.39687,-0.39688 0.5521,0 0.52516,-1.686 -0.0359,-2.24706 -0.58625,-0.58624 -0.13983,-0.99003 0.97407,-0.88106 0.87118,0.0852 1.46595,0.74687 0.67138,0.74687 -0.59744,0 -0.58451,1.99771 0.0151,2.33327 0.6893,0.38576 0.15907,0.84173 -0.97881,0.84173 -0.75048,0 -1.04272,-0.11123 -1.04272,-0.39687 z m 3.0868,0.22049 c -0.51661,-0.51662 -0.12296,-0.82443 0.88195,-0.68964 1.25995,0.16899 1.49753,-0.38228 0.27052,-0.62768 -1.01652,-0.20331 -1.42891,-0.71747 -1.22549,-1.52793 0.19425,-0.77398 0.93956,-1.05853 2.1686,-0.82797 1.20093,0.2253 1.23687,0.94597 0.0431,0.86513 -1.1948,-0.0809 -1.31405,0.34022 -0.19844,0.7008 1.08583,0.35094 1.41883,1.36571 0.63602,1.93812 -0.49188,0.35967 -2.2691,0.47636 -2.5763,0.16917 z m 3.79236,-1.80799 v -1.98438 h 1.32292 c 0.99954,0 1.32292,0.097 1.32292,0.39688 0,0.26697 -0.26704,0.39687 -0.8158,0.39687 -1.01229,0 -0.92146,0.62324 0.1086,0.74518 0.94887,0.11233 0.89802,0.55281 -0.0866,0.74972 -0.43657,0.0873 -0.79375,0.32246 -0.79375,0.52255 0,0.22784 0.29665,0.3638 0.79375,0.3638 0.52916,0 0.79375,0.1323 0.79375,0.39688 0,0.29986 -0.32338,0.39687 -1.32292,0.39687 h -1.32292 z m 3.54928,1.62402 c -0.076,-0.1982 -0.10208,-1.0614 -0.0578,-1.91823 0.0787,-1.52336 0.0983,-1.55963 0.88907,-1.63696 1.36264,-0.13327 2.23408,0.34681 2.23408,1.23076 0,0.87599 -0.37277,1.27123 -1.32292,1.40266 -0.4489,0.0621 -0.68863,0.2828 -0.74601,0.68681 -0.0924,0.65077 -0.77505,0.81174 -0.99638,0.23496 z m 1.95661,-2.21933 c -0.049,-0.25466 -0.26451,-0.46302 -0.4788,-0.46302 -0.2143,0 -0.42976,0.20836 -0.4788,0.46302 -0.0626,0.32487 0.0803,0.46302 0.4788,0.46302 0.3985,0 0.54136,-0.13815 0.4788,-0.46302 z m 3.66634,2.4033 c -0.51662,-0.51662 -0.12297,-0.82443 0.88194,-0.68964 0.61132,0.082 1.05833,0.0324 1.05833,-0.11734 0,-0.1426 -0.47625,-0.44636 -1.05833,-0.67501 -1.17915,-0.46318 -1.38616,-1.13793 -0.57448,-1.87249 0.76196,-0.68957 2.69115,-0.52092 2.69115,0.23525 0,0.25191 -0.25361,0.31077 -0.89241,0.20711 -1.10764,-0.17975 -1.55559,0.35312 -0.50748,0.60369 0.40614,0.0971 0.88726,0.29376 1.06916,0.43703 0.50392,0.39691 0.39484,1.46569 -0.18105,1.77389 -0.57147,0.30585 -2.21409,0.37025 -2.48683,0.0975 z m 3.96875,0 c -0.097,-0.097 -0.17639,-0.54945 -0.17639,-1.00542 0,-0.45597 -0.14883,-0.98679 -0.33073,-1.1796 -0.26459,-0.28046 -0.26459,-0.37483 0,-0.47184 0.1819,-0.0667 0.33073,-0.28994 0.33073,-0.49609 0,-0.20616 0.17859,-0.37483 0.39687,-0.37483 0.21828,0 0.39688,0.17859 0.39688,0.39687 0,0.22049 0.23518,0.39688 0.52916,0.39688 0.29105,0 0.52917,0.13021 0.52917,0.28935 0,0.15915 -0.23812,0.35163 -0.52917,0.42774 -0.73114,0.19119 -0.71142,1.2902 0.0266,1.4832 0.30603,0.08 0.47736,0.27224 0.38126,0.42773 -0.19232,0.31118 -1.27538,0.38503 -1.55441,0.10601 z m 2.38003,-0.0203 c -0.13262,-0.21622 -0.24861,-1.50089 -0.20321,-2.25069 0.0154,-0.25466 0.20663,-0.46302 0.42491,-0.46302 0.28663,0 0.39688,0.29398 0.39688,1.05833 0,0.88195 0.0882,1.05833 0.52916,1.05833 0.44098,0 0.52917,-0.17638 0.52917,-1.05833 0,-0.7583 0.11108,-1.05833 0.39184,-1.05833 0.45715,0 0.74483,0.93507 0.62101,2.01855 -0.0805,0.7044 -0.17688,0.7645 -1.3269,0.82745 -0.68204,0.0373 -1.29533,-0.0222 -1.36286,-0.13229 z m 3.58191,-0.1208 c -0.83266,-0.83265 -0.14379,-2.59291 1.01473,-2.59291 0.60805,0 0.78444,-0.11899 0.78444,-0.52917 0,-0.29104 0.1666,-0.52917 0.37023,-0.52917 0.39374,0 0.62565,1.5246 0.4729,3.10886 -0.0792,0.82178 -0.13259,0.85989 -1.20386,0.85989 -0.61651,0 -1.26381,-0.14287 -1.43844,-0.3175 z m 1.75059,-1.20385 c -0.0498,-0.43316 -0.24432,-0.7276 -0.48059,-0.7276 -0.23627,0 -0.43075,0.29444 -0.48059,0.7276 -0.0682,0.59249 0.0211,0.7276 0.48059,0.7276 0.45952,0 0.54877,-0.13511 0.48059,-0.7276 z m 2.05185,1.10558 c -0.50413,-0.50413 -0.53762,-1.43312 -0.0745,-2.06648 0.24938,-0.34105 0.62344,-0.44373 1.38906,-0.3813 0.92118,0.0751 1.0579,0.17335 1.1315,0.81303 0.0775,0.67339 0.0134,0.72761 -0.85989,0.72761 -0.51899,0 -0.94362,0.11906 -0.94362,0.26458 0,0.2836 0.31069,0.35157 1.25677,0.27494 0.38528,-0.0312 0.59531,0.0985 0.59531,0.36758 0,0.56788 -1.92677,0.56791 -2.49464,4e-5 z m 1.70089,-1.70089 c 0,-0.14552 -0.23812,-0.26459 -0.52916,-0.26459 -0.29104,0 -0.52917,0.11907 -0.52917,0.26459 0,0.14552 0.23813,0.26458 0.52917,0.26458 0.29104,0 0.52916,-0.11906 0.52916,-0.26458 z m 1.5875,0.66146 v -1.45521 h 1.29461 c 1.45129,0 1.61581,0.19078 1.61581,1.87372 0,0.86031 -0.09,1.03669 -0.52917,1.03669 -0.44097,0 -0.52916,-0.17638 -0.52916,-1.05833 0,-0.88194 -0.0882,-1.05833 -0.52917,-1.05833 -0.44097,0 -0.52917,0.17639 -0.52917,1.05833 0,0.76435 -0.11024,1.05833 -0.39687,1.05833 -0.30467,0 -0.39688,-0.33807 -0.39688,-1.4552 z m 3.8415,0.79375 c -0.0755,-0.36381 -0.19256,-0.93294 -0.26006,-1.26475 -0.19238,-0.94561 0.12726,-1.77796 0.68276,-1.77796 0.27406,0 0.4983,0.17859 0.4983,0.39687 0,0.21828 0.1786,0.39688 0.39688,0.39688 0.21828,0 0.39687,0.10632 0.39687,0.23627 0,0.12996 -0.17859,0.30481 -0.39687,0.38858 -0.21828,0.0838 -0.39688,0.45368 -0.39688,0.82205 0,0.41896 0.14862,0.66976 0.39688,0.66976 0.21828,0 0.39687,0.1786 0.39687,0.39688 0,0.26402 -0.26402,0.39687 -0.78871,0.39687 -0.62828,0 -0.81664,-0.13454 -0.92604,-0.66145 z m 4.15056,-1.25677 c 0.0768,-1.89452 0.0871,-1.91931 0.83731,-2.00504 1.60786,-0.18375 1.92916,0.0784 2.12359,1.7327 0.21397,1.82057 -0.10475,2.19056 -1.88699,2.19056 h -1.15165 z m 2.06211,0.7276 c 0,-0.22049 -0.23519,-0.39688 -0.52917,-0.39688 -0.29398,0 -0.52916,0.17639 -0.52916,0.39688 0,0.22049 0.23518,0.39687 0.52916,0.39687 0.29398,0 0.52917,-0.17638 0.52917,-0.39687 z m -0.26458,-1.5875 c 0,-0.21828 -0.1786,-0.39688 -0.39688,-0.39688 -0.21828,0 -0.39687,0.1786 -0.39687,0.39688 0,0.21828 0.17859,0.39687 0.39687,0.39687 0.21828,0 0.39688,-0.17859 0.39688,-0.39687 z m 2.11666,1.3589 v -1.45802 l 1.05834,0.0146 c 0.71718,0.01 1.05833,0.13248 1.05833,0.38029 0,0.20113 -0.23094,0.36569 -0.51319,0.36569 -0.40181,0 -0.53103,0.21488 -0.59532,0.98998 -0.0574,0.69188 -0.22155,1.01641 -0.54514,1.07774 -0.39557,0.075 -0.46302,-0.12465 -0.46302,-1.37028 z m 2.45736,0.97135 c -0.23618,-0.61548 0.27153,-1.25023 1.14281,-1.42879 0.62784,-0.12867 0.68221,-0.19322 0.30244,-0.35904 -0.25466,-0.11119 -0.64162,-0.13363 -0.8599,-0.0499 -0.24175,0.0928 -0.39687,5.3e-4 -0.39687,-0.23628 0,-0.28274 0.31657,-0.38857 1.16231,-0.38857 1.30231,0 1.48352,0.22577 1.48352,1.84832 v 1.0113 l -1.33699,0.0103 c -0.98088,0.008 -1.3797,-0.10093 -1.49732,-0.40744 z m 1.77598,-0.62607 c 0,-0.13694 -0.1786,-0.24897 -0.39688,-0.24897 -0.40915,0 -0.52565,0.3122 -0.22768,0.61017 0.21139,0.21138 0.62456,-0.0276 0.62456,-0.3612 z m 1.85208,-0.37569 v -1.48844 l 1.38906,0.08 1.38906,0.08 0.0807,1.41127 c 0.071,1.24042 0.0229,1.40031 -0.39688,1.32072 -0.3399,-0.0644 -0.50129,-0.37601 -0.55973,-1.08055 -0.0519,-0.62539 -0.21652,-0.98998 -0.44705,-0.98998 -0.23054,0 -0.39518,0.36459 -0.44705,0.98998 -0.0574,0.69188 -0.22155,1.01641 -0.54514,1.07774 -0.3965,0.0751 -0.46302,-0.12609 -0.46302,-1.40069 z m 4.04222,1.11891 c -0.54113,-0.69935 -0.60535,-1.34552 -0.19582,-1.97054 0.33705,-0.5144 0.60543,-0.62335 1.37461,-0.55803 0.52584,0.0447 1.01068,0.24799 1.07781,0.45202 0.0902,0.27411 -0.0389,0.32876 -0.49494,0.20951 -0.72818,-0.19042 -1.30596,0.21096 -1.30596,0.90724 0,0.3905 0.19634,0.49677 0.91774,0.49677 0.70706,0 0.88277,0.0911 0.76544,0.39688 -0.18705,0.48744 -1.7749,0.53654 -2.13888,0.0661 z m 2.83695,-1.65365 c 0,-1.5875 0.0794,-1.98438 0.39687,-1.98438 0.22049,0 0.39688,0.23519 0.39688,0.52917 0,0.4252 0.17639,0.52917 0.89773,0.52917 1.01724,0 1.21893,0.31004 1.21893,1.87372 0,0.86031 -0.09,1.03669 -0.52916,1.03669 -0.44256,0 -0.52917,-0.17638 -0.52917,-1.07773 0,-0.88345 -0.0835,-1.06191 -0.46302,-0.98999 -0.32359,0.0613 -0.48775,0.38587 -0.54514,1.07774 -0.0537,0.64712 -0.21404,0.98998 -0.46302,0.98998 -0.29762,0 -0.3809,-0.43385 -0.3809,-1.98437 z"
         id="path382" /><path
         style="fill:#0b6ea7;stroke-width:0.264583"
         d="m 101.1641,142.47727 c -0.072,-0.18766 -0.0996,-4.68646 -0.0614,-9.99733 l 0.0695,-9.65613 h 2.77812 2.77813 v 9.92187 9.92188 l -2.71671,0.0754 c -2.02972,0.0564 -2.74983,-0.0108 -2.84765,-0.26574 z m 8.4631,-0.009 c -0.0701,-0.18254 -0.0961,-4.67715 -0.0578,-9.98802 l 0.0695,-9.65613 7.60677,-0.0702 7.60677,-0.0702 v 1.98843 1.98843 h -4.7625 -4.7625 v 1.98438 1.98437 h 4.36563 4.36562 v 1.98438 1.98437 h -4.36562 -4.36563 v 2.11667 2.11667 h 4.7625 4.7625 v 1.98437 1.98438 h -7.54892 c -5.80911,0 -7.57829,-0.0765 -7.67629,-0.33189 z m 18.40021,-9.71822 v -10.05823 h 7.67292 7.67292 v 1.98438 1.98437 h -4.89479 -4.8948 v 1.97798 1.97798 l 4.43177,0.0725 4.43178,0.0726 0.0777,1.91822 0.0777,1.91823 h -4.50951 -4.50951 v 2.1107 2.1107 l 4.82865,0.0721 4.82865,0.0721 v 1.85208 1.85209 l -7.60678,0.0702 -7.60677,0.0702 z m 18.37687,9.71822 c -0.07,-0.18254 -0.0961,-4.67715 -0.0578,-9.98802 l 0.0695,-9.65613 7.60677,-0.0702 7.60677,-0.0702 v 1.98843 1.98843 h -4.7625 -4.7625 v 1.98438 1.98437 h 4.36562 4.36563 v 1.98438 1.98437 h -4.33478 c -4.96798,0 -4.63241,-0.20472 -4.44517,2.71198 l 0.0977,1.52136 h 4.73801 4.73802 v 1.98437 1.98438 h -7.54893 c -5.80911,0 -7.57828,-0.0765 -7.67629,-0.33189 z M 81.410724,119.42112 c -0.488611,0.13894 -0.79471,0.62525 -1.09384,0.99963 -0.661068,0.82753 -1.294437,1.6771 -1.998024,2.46996 -2.43106,2.73972 -5.015083,5.36979 -7.934755,7.59655 -0.891835,0.68021 -1.82016,1.30167 -2.734602,1.94889 -0.369391,0.26146 -0.818229,0.61952 -0.738581,1.12824 0.125863,0.80398 1.381873,1.3188 1.973564,1.75413 1.805012,1.32831 3.56389,2.72401 5.204563,4.25239 2.046011,1.90593 3.910921,3.97858 5.645365,6.16697 0.505284,0.63751 1.096487,2.06788 2.117287,1.81295 0.479967,-0.11988 0.771158,-0.65075 1.047441,-1.01904 0.660186,-0.87983 1.364214,-1.72121 2.077238,-2.55818 2.386338,-2.80084 5.101886,-5.29453 7.990242,-7.56769 0.819587,-0.6451 1.666519,-1.28871 2.558176,-1.83149 0.444241,-0.27037 0.941321,-0.58353 0.848256,-1.18638 -0.127291,-0.82382 -1.463629,-1.39209 -2.083237,-1.82786 -1.831742,-1.28817 -3.56698,-2.74122 -5.204565,-4.26677 -1.995906,-1.85917 -3.918508,-3.90228 -5.566414,-6.07876 -0.464971,-0.61413 -1.128773,-2.07194 -2.108114,-1.79354 m -0.176425,3.67504 c 1.256505,-0.22476 2.258781,0.68391 3.175666,1.39297 2.276953,1.76064 4.351634,3.7816 6.196608,5.9879 0.642367,0.76816 1.820362,1.85996 1.909369,2.91102 0.09853,1.16327 -1.155237,2.37877 -1.85653,3.17568 -1.80519,2.05139 -3.805419,4.0653 -5.984808,5.72238 -0.759514,0.57744 -1.676046,1.48841 -2.646389,1.65849 -1.172173,0.20554 -2.416417,-0.94847 -3.263879,-1.62974 -2.225437,-1.78896 -4.377039,-3.75928 -6.23798,-5.92755 -0.609463,-0.71021 -1.710096,-1.7543 -1.780755,-2.73462 -0.08265,-1.14623 1.142005,-2.30147 1.839417,-3.08745 1.850796,-2.0858 3.884105,-4.08091 6.091105,-5.79118 0.724228,-0.5613 1.628499,-1.51153 2.558176,-1.6779 m 0.176425,0.54278 c -0.966637,0.15895 -1.905223,1.07672 -2.646388,1.66881 -2.011696,1.60689 -3.923272,3.41013 -5.6204,5.3457 -0.633634,0.72273 -1.84965,1.85688 -1.769641,2.91103 0.05487,0.72211 0.697588,1.40083 1.127273,1.94069 1.119246,1.40656 2.372224,2.69288 3.704592,3.89637 1.217162,1.0994 2.435295,2.23064 3.793157,3.15811 0.553272,0.378 1.231188,0.88284 1.940685,0.76711 0.977311,-0.15932 1.898343,-1.0538 2.646389,-1.64694 2.004022,-1.58898 3.83497,-3.39188 5.542508,-5.29251 0.672359,-0.74841 1.847709,-1.90233 1.768582,-2.99926 -0.06642,-0.92164 -1.008098,-1.7856 -1.547343,-2.46996 -1.678781,-2.13061 -3.722675,-4.08858 -5.85196,-5.76375 -0.84164,-0.66212 -1.908751,-1.70921 -3.087454,-1.5154 m 0.26464,2.25101 1.676046,4.49887 -1.093576,0.1414 -0.05663,1.18179 0.09165,3.08745 h -1.411407 l 0.113353,-2.99924 -0.07833,-1.27 -0.917151,-0.1414 0.999718,-2.82282 0.676329,-1.67605 m -2.028898,6.35133 c -0.864487,0.11653 -3.154672,1.0366 -1.762936,2.06083 0.95764,0.70475 2.809935,0.89193 3.96826,0.84104 1.279706,-0.0563 3.114976,-0.13779 4.144333,-0.9947 1.330075,-1.10725 -0.787918,-1.73718 -1.67437,-1.55431 l -0.352852,-1.14677 2.558176,0.52928 v 0.0882 l -0.441065,0.0882 c 0.392636,0.37041 0.939644,0.53396 1.184171,1.05865 0.685855,1.47184 -2.135018,2.04866 -3.036643,2.22262 -2.073887,0.40004 -4.304616,0.35629 -6.351334,-0.18357 -0.794357,-0.20959 -1.760024,-0.48748 -2.334732,-1.10982 -0.616432,-0.66759 -0.131348,-1.45595 0.482349,-1.9061 1.039943,-0.76261 2.803496,-1.43717 3.616643,0.007 m 2.734602,3.70495 0.176425,4.41065 H 80.61681 l 0.176427,-3.17566 0.141405,-1.1443 1.446428,-0.0907 m 5.380991,8.06894 c -1.948625,0.34508 -1.482155,3.19154 0.441064,2.91296 1.976147,-0.28625 1.507206,-3.25797 -0.441064,-2.91296 m 0.176425,0.35558 c 1.358215,-0.0905 1.511353,2.06242 0.176426,2.21097 -1.403732,0.15623 -1.599654,-2.11605 -0.176426,-2.21097 m -0.529278,0.30857 v 1.58783 h 0.352853 v -0.61749 l 0.882129,0.61749 -0.352852,-0.7057 c 1.072669,-0.56827 -0.385843,-0.88213 -0.88213,-0.88213 m 0.88213,0.35285 v 0.17642 l -0.529277,0.0882 v -0.35285 z"
         id="path380"
         sodipodi:nodetypes="ccccccccccsccccccccccccccccccccccsssccccccccccccccccccccccccccccccccccccccccsccccccscc" /></g></g></svg>
