<?xml version="1.0" encoding="UTF-8" standalone="no"?>
<!-- Created with Inkscape (http://www.inkscape.org/) -->

<svg
   width="299.46585mm"
   height="84.566483mm"
   viewBox="0 0 299.46585 84.566483"
   version="1.1"
   id="svg5"
   xml:space="preserve"
   inkscape:version="1.2.1 (9c6d41e410, 2022-07-14)"
   sodipodi:docname="IEEE.svg"
   xmlns:inkscape="http://www.inkscape.org/namespaces/inkscape"
   xmlns:sodipodi="http://sodipodi.sourceforge.net/DTD/sodipodi-0.dtd"
   xmlns="http://www.w3.org/2000/svg"
   xmlns:svg="http://www.w3.org/2000/svg"><sodipodi:namedview
     id="namedview7"
     pagecolor="#ffffff"
     bordercolor="#000000"
     borderopacity="0.25"
     inkscape:showpageshadow="2"
     inkscape:pageopacity="0.0"
     inkscape:pagecheckerboard="0"
     inkscape:deskcolor="#d1d1d1"
     inkscape:document-units="mm"
     showgrid="false"
     inkscape:zoom="0.7652427"
     inkscape:cx="323.4268"
     inkscape:cy="-182.29511"
     inkscape:window-width="2400"
     inkscape:window-height="1261"
     inkscape:window-x="2391"
     inkscape:window-y="-6"
     inkscape:window-maximized="1"
     inkscape:current-layer="layer1" /><defs
     id="defs2" /><g
     inkscape:label="Layer 1"
     inkscape:groupmode="layer"
     id="layer1"
     transform="translate(35.966237,-196.89595)"><path
       style="fill:#14689b;stroke:none;stroke-width:0.264583"
       d="m 7.5518768,197.00076 c -1.465527,0.41672 -2.383631,1.87537 -3.280833,2.99826 -1.982787,2.48206 -3.88249604,5.03026 -5.992812,7.40834 -7.291652,8.21742 -15.0420918,16.10598 -23.7992708,22.78485 -2.674937,2.04021 -5.459333,3.9042 -8.202083,5.84544 -1.107942,0.78423 -2.454169,1.85817 -2.215277,3.38402 0.377508,2.41142 4.144751,3.95553 5.919444,5.26125 5.413904,3.98409 10.689431,8.17033 15.610416,12.7545 6.1367458,5.71659 11.7303018,11.93324 16.9325388,18.49702 1.515534,1.91215 3.288771,6.20236 6.350529,5.43772 1.4395982,-0.35957 2.3129882,-1.95183 3.1416632,-3.05647 1.980142,-2.63895 4.091781,-5.16255 6.230408,-7.67292 7.157508,-8.40078 15.302442,-15.88029 23.965693,-22.69833 2.458244,-1.9349 4.998509,-3.8653 7.672917,-5.49328 1.332442,-0.81095 2.823369,-1.75023 2.544233,-3.55839 -0.381794,-2.47094 -4.389966,-4.17539 -6.2484,-5.48243 -5.494072,-3.86371 -10.698691,-8.22193 -15.610416,-12.79763 -5.986462,-5.57636 -11.753056,-11.70437 -16.695737,-18.23244 -1.394619,-1.84203 -3.385608,-6.21453 -6.3230132,-5.37951 m -0.529166,11.02281 c 3.7687252,-0.67416 6.7749202,2.05131 9.5250002,4.17804 6.829424,5.28081 13.05216,11.34242 18.58592,17.95991 1.926696,2.30399 5.459942,5.57874 5.726906,8.73125 0.29554,3.48907 -3.464983,7.13476 -5.568421,9.525 -5.414433,6.15289 -11.41386,12.19333 -17.950655,17.16353 -2.278063,1.73196 -5.027084,4.46431 -7.9375002,4.97443 -3.515784,0.61648 -7.247731,-2.8448 -9.78958304,-4.88818 C -7.0605312,260.3018 -13.513983,254.39207 -19.095633,247.88861 c -1.828006,-2.13016 -5.129212,-5.26177 -5.341143,-8.20209 -0.247915,-3.43799 3.425295,-6.90298 5.517091,-9.26041 5.551223,-6.25608 11.6498688,-12.24016 18.26947876,-17.3699 2.17222904,-1.68354 4.88447304,-4.53364 7.67291704,-5.03264 m 56.3562492,0.97129 v 49.47708 12.17083 l 0.424127,4.22593 4.867539,0.27199 H 81.89979 V 208.99486 H 63.37896 m 28.04583,0 v 66.14583 h 50.53542 v -12.96458 h -32.01458 v -13.75834 h 29.36874 v -12.96458 h -29.36874 v -13.75833 h 32.01458 v -12.7 H 91.42479 m 60.58958,0 v 66.14583 h 50.53542 v -12.96458 h -32.01458 v -13.75834 h 29.36875 v -12.96458 h -29.36875 v -13.75833 h 32.01458 v -12.7 h -50.53542 m 60.85417,0 v 66.14583 h 50.53542 v -8.99583 c 0,-0.93425 0.34395,-2.76675 -0.27253,-3.54462 -0.99218,-1.25281 -6.39497,-0.42413 -7.92956,-0.42413 h -24.07708 v -13.75834 h 21.96042 c 1.4605,0 6.44789,0.77841 7.40039,-0.42412 0.61648,-0.77788 0.27252,-2.61038 0.27252,-3.54463 v -8.99583 h -29.63333 v -9.78958 c 0,-0.97738 -0.33602,-2.78369 0.42333,-3.54463 1.30704,-1.30677 6.52198,-0.42412 8.30792,-0.42412 h 23.54792 v -12.7 H 212.86854 M 7.5518768,209.65155 c -2.899304,0.47678 -5.71447,3.22951 -7.93749904,5.00539 -6.03382296,4.81965 -11.76734376,10.22826 -16.85766276,16.03375 -1.900502,2.16773 -5.547783,5.56948 -5.307806,8.73125 0.164571,2.16588 2.092325,4.20158 3.38111,5.82083 3.357034,4.21879 7.115175,8.07694 11.1114418,11.68665 3.650721,3.2975 7.30435196,6.69052 11.377083,9.47235 1.659467,1.13374 3.69279,2.64795 5.820833,2.30082 2.9313192,-0.47784 5.6938342,-3.16072 7.9375002,-4.93978 6.010804,-4.76594 11.502496,-10.17349 16.624035,-15.8742 2.016654,-2.24473 5.541963,-5.70574 5.304631,-8.99584 -0.199231,-2.76436 -3.023658,-5.35569 -4.641056,-7.40833 -5.035285,-6.39048 -11.165681,-12.26317 -17.552193,-17.28761 -2.52439,-1.98596 -5.725054,-5.12657 -9.2604172,-4.54528 m 0.79375,6.75164 5.0270842,13.49375 -3.28004,0.42413 -0.1698622,3.54462 0.2749022,9.26042 H 5.9643768 l 0.33999,-8.99584 -0.23495,-3.8092 -2.750873,-0.42413 2.998523,-8.46667 2.02856,-5.02708 m -6.085416,19.05 c -2.59291704,0.34951 -9.462029,3.10912 -5.287698,6.18119 2.87231696,2.11376 8.428037,2.67521 11.902281,2.52254 3.8383102,-0.1688 9.3429672,-0.41327 12.4303892,-2.98344 3.989388,-3.32105 -2.363258,-5.21044 -5.022056,-4.66196 l -1.058333,-3.43958 7.672916,1.5875 v 0.26458 l -1.322916,0.26459 c 1.17766,1.11098 2.818341,1.60152 3.551766,3.17526 2.057136,4.41458 -6.40371,6.14469 -9.108016,6.66644 -6.2203542,1.19989 -12.9111372,1.06866 -19.0500002,-0.55059 -2.382573,-0.62865 -5.278966,-1.46209 -7.0027268,-3.32873 -1.848908,-2.00237 -0.393964,-4.36695 1.4467418,-5.71712 3.119173,-2.28732 8.40872296,-4.31059 10.847652,0.0193 m 8.2020832,11.11251 0.529167,13.22917 H 5.1706268 l 0.529167,-9.525 0.424127,-3.43218 4.3383732,-0.27199 m 16.139583,24.2017 c -5.844646,1.03505 -4.445529,9.57263 1.322917,8.73707 5.927195,-0.85857 4.52067,-9.77185 -1.322917,-8.73707 m 0.529167,1.06654 c 4.073789,-0.27146 4.533106,6.18596 0.529166,6.63152 -4.210314,0.46857 -4.797954,-6.34683 -0.529166,-6.63152 m -1.5875,0.92551 v 4.7625 h 1.058333 v -1.85208 l 2.645833,1.85208 -1.058333,-2.11667 c 3.217333,-1.70444 -1.157287,-2.64583 -2.645833,-2.64583 m 2.645833,1.05833 v 0.52917 l -1.5875,0.26458 v -1.05833 z"
       id="path302" /></g></svg>
