<?xml version="1.0" encoding="UTF-8" standalone="no"?>
<!-- Created with Inkscape (http://www.inkscape.org/) -->

<svg
   width="200mm"
   height="200mm"
   viewBox="0 0 200 200"
   version="1.1"
   id="svg5"
   xml:space="preserve"
   inkscape:version="1.2.1 (9c6d41e410, 2022-07-14)"
   sodipodi:docname="logo-mics.svg"
   xmlns:inkscape="http://www.inkscape.org/namespaces/inkscape"
   xmlns:sodipodi="http://sodipodi.sourceforge.net/DTD/sodipodi-0.dtd"
   xmlns="http://www.w3.org/2000/svg"
   xmlns:svg="http://www.w3.org/2000/svg"><sodipodi:namedview
     id="namedview7"
     pagecolor="#ffffff"
     bordercolor="#000000"
     borderopacity="0.25"
     inkscape:showpageshadow="2"
     inkscape:pageopacity="0.0"
     inkscape:pagecheckerboard="0"
     inkscape:deskcolor="#d1d1d1"
     inkscape:document-units="mm"
     showgrid="false"
     inkscape:zoom="0.3581229"
     inkscape:cx="6.9808438"
     inkscape:cy="797.21236"
     inkscape:window-width="1920"
     inkscape:window-height="991"
     inkscape:window-x="-9"
     inkscape:window-y="-9"
     inkscape:window-maximized="1"
     inkscape:current-layer="layer1" /><defs
     id="defs2" /><g
     inkscape:label="Layer 1"
     inkscape:groupmode="layer"
     id="layer1"><path
       style="fill:#000000;stroke-width:0.308594"
       d="M 90.091642,190.08347 C 73.55635,188.03162 58.592022,182.03824 45.808352,172.34752 26.207677,157.48913 13.654655,135.96535 10.48419,111.77968 9.843233,106.89017 9.837361,93.208599 10.47416,88.351009 c 0.419845,-3.20277 1.455769,-8.80285 1.878887,-10.15705 0.158599,-0.50761 1.471399,-0.54005 21.854473,-0.54005 20.572976,0 21.807834,0.0312 24.06514,0.60855 3.207347,0.82031 6.22943,2.46565 8.723307,4.74934 2.534969,2.32131 4.099391,4.68205 5.073678,7.65628 0.735371,2.24489 0.740732,2.35729 0.740732,15.530801 v 13.26955 l -5.139055,0.0845 -5.139054,0.0844 -0.134271,-12.11966 C 62.244176,93.633219 62.207459,93.406349 59.709814,90.908709 57.224821,88.423719 57.476012,88.454649 39.781019,88.454649 H 24.297161 l -0.353799,3.48977 c -3.952915,38.990331 21.545169,74.445311 59.7379,83.065311 7.57441,1.70951 18.572988,2.22482 26.221758,1.22853 17.16173,-2.2354 32.51024,-9.72191 44.55321,-21.73161 5.4882,-5.47304 9.90409,-11.32531 13.43939,-17.81092 l 1.40044,-2.56912 h 7.36305 c 4.04969,0 7.42797,0.10497 7.50729,0.23337 0.22193,0.35908 -3.77162,8.47819 -5.95673,12.11039 -12.93122,21.49495 -34.39075,36.89812 -58.64727,42.09574 -6.86249,1.47046 -9.85919,1.72801 -19.52921,1.67842 -4.958678,-0.0254 -9.432378,-0.098 -9.941548,-0.16112 z M 35.007552,104.96451 V 90.306279 h 5.091805 5.091806 v 14.658231 14.65822 h -5.091806 -5.091805 z m 46.28915,-1.7247 V 86.856869 l 0.91794,0.7724 c 2.16115,1.81849 5.82201,1.94002 8.18867,0.27185 l 1.3856,-0.97666 v 16.349131 16.34914 h -5.24611 -5.2461 z m 28.878268,16.04124 c -3.59454,-0.5242 -6.9693,-2.62357 -8.76571,-5.45298 -2.013718,-3.17169 -2.021548,-3.24665 -2.141398,-20.513001 l -0.10871,-15.66116 h 15.382888 c 16.72105,0 17.38098,0.0567 20.51155,1.76052 2.78105,1.51363 5.31148,4.93033 5.95253,8.03734 l 0.20692,1.00294 h -15.77908 -15.77907 l 0.0934,9.74835 0.0934,9.748351 0.72852,0.58955 c 0.69348,0.56121 1.40973,0.58957 14.88968,0.58957 h 14.16115 v 5.2461 5.2461 l -13.80959,-0.0377 c -7.59528,-0.0207 -14.63169,-0.15752 -15.63646,-0.30406 z m 38.0867,-4.88595 c 0,-3.9813 0.094,-5.27583 0.38573,-5.31075 0.21217,-0.0254 6.57153,-0.0602 14.13194,-0.0772 12.36018,-0.028 13.82656,-0.0837 14.54319,-0.55329 0.99305,-0.65068 1.32543,-1.87043 0.80527,-2.95523 -0.73091,-1.52435 -1.26205,-1.60468 -10.64096,-1.60959 -9.40377,-0.005 -10.95407,-0.18187 -13.67048,-1.56035 -1.65942,-0.84209 -4.01947,-3.031751 -5.02327,-4.660591 -1.02623,-1.66522 -1.76581,-4.52715 -1.76581,-6.83312 0,-6.42186 3.64652,-11.06279 10.02773,-12.76231 1.08757,-0.28965 3.81052,-0.41244 9.20306,-0.41502 l 7.65851,-0.004 -0.20985,-0.69435 c -1.4463,-4.78549 -5.16213,-12.8468 -8.00131,-17.35842 -4.44618,-7.06525 -11.05876,-14.53217 -17.13516,-19.34899 C 138.04379,31.907459 126.41331,26.656532 113.39051,24.36893 107.30133,23.299302 97.548242,23.035907 91.480312,23.777222 73.314606,25.996511 57.38869,33.947969 44.802952,47.082199 c -3.685949,3.8466 -7.240739,8.43089 -9.7954,12.63227 l -1.697269,2.79132 -7.795886,0.0134 -7.795885,0.0134 1.124243,-2.23731 c 4.566446,-9.08761 9.705718,-16.29372 16.751652,-23.4887 14.432636,-14.737962 32.721021,-23.92202 52.905145,-26.567934 4.9732,-0.6519264 18.577388,-0.6516344 23.563618,5.14e-4 17.82048,2.330721 34.24647,9.740111 47.96842,21.63745 10.02983,8.69617 18.74822,20.72209 23.84884,32.89648 2.81837,6.72701 5.42989,16.06466 5.90874,21.12708 l 0.21083,2.229 -15.59089,0.0855 c -14.83273,0.0813 -15.62246,0.11407 -16.24024,0.67333 -0.90006,0.8148 -0.90034,2.94655 -6.2e-4,3.76177 0.60143,0.54489 1.38543,0.60034 10.72365,0.75848 8.53203,0.14449 10.28587,0.25234 11.45334,0.7043 4.37621,1.69418 7.26428,4.89048 8.36104,9.253401 0.58117,2.31186 0.22324,6.26006 -0.76278,8.41378 -1.55535,3.39732 -4.01125,5.68485 -7.51622,7.00088 -1.70717,0.641 -2.30207,0.66804 -16.96747,0.77153 l -15.19814,0.10719 z M 85.252502,86.927209 c -2.15758,-0.67625 -3.33368,-2.27005 -3.33658,-4.5216 -0.005,-3.7214 3.69815,-5.89321 6.90921,-4.05228 3.01994,1.73135 3.11684,5.8758 0.18642,7.97395 -0.94443,0.67622 -2.64815,0.94812 -3.75905,0.59993 z"
       id="path302" /></g></svg>
