<?xml version="1.0" encoding="UTF-8" standalone="no"?>
<svg
   viewBox="0 0 700 270"
   height="270"
   width="700"
   xml:space="preserve"
   id="svg2"
   version="1.1"
   sodipodi:docname="logo-thera.svg"
   inkscape:version="1.2.1 (9c6d41e410, 2022-07-14)"
   xmlns:inkscape="http://www.inkscape.org/namespaces/inkscape"
   xmlns:sodipodi="http://sodipodi.sourceforge.net/DTD/sodipodi-0.dtd"
   xmlns="http://www.w3.org/2000/svg"
   xmlns:svg="http://www.w3.org/2000/svg"
   xmlns:rdf="http://www.w3.org/1999/02/22-rdf-syntax-ns#"
   xmlns:cc="http://creativecommons.org/ns#"
   xmlns:dc="http://purl.org/dc/elements/1.1/"><sodipodi:namedview
     id="namedview38"
     pagecolor="#ffffff"
     bordercolor="#000000"
     borderopacity="0.25"
     inkscape:showpageshadow="2"
     inkscape:pageopacity="0.0"
     inkscape:pagecheckerboard="0"
     inkscape:deskcolor="#d1d1d1"
     showgrid="false"
     inkscape:zoom="1.0636234"
     inkscape:cx="257.13989"
     inkscape:cy="153.71982"
     inkscape:window-width="1920"
     inkscape:window-height="991"
     inkscape:window-x="-9"
     inkscape:window-y="-9"
     inkscape:window-maximized="1"
     inkscape:current-layer="svg2" /><metadata
     id="metadata8"><rdf:RDF><cc:Work
         rdf:about=""><dc:format>image/svg+xml</dc:format><dc:type
           rdf:resource="http://purl.org/dc/dcmitype/StillImage" /></cc:Work></rdf:RDF></metadata><defs
     id="defs6"><clipPath
       id="clipPath18"
       clipPathUnits="userSpaceOnUse"><path
         id="path16"
         d="M 0,566.93 H 566.93 V 0 H 0 Z" /></clipPath></defs><g
     transform="matrix(1.4269782,0,0,-1.4269782,-54.498754,556.12602)"
     id="g10"><g
       id="g12"><g
         clip-path="url(#clipPath18)"
         id="g14"><g
           transform="translate(330.1562,243.9023)"
           id="g20"><path
             id="path22"
             style="fill:#1889ad;fill-opacity:1;fill-rule:evenodd;stroke:none"
             d="m 0,0 c 0,-5.885 -0.01,-11.771 0.014,-17.656 0.004,-0.608 -0.117,-0.79 -0.761,-0.779 -2.468,0.045 -4.937,0.034 -7.404,0.006 -0.509,-0.005 -0.624,0.149 -0.623,0.636 0.013,9.851 0.011,19.7 0.002,29.55 0,0.443 0.087,0.609 0.581,0.605 2.824,-0.027 5.648,-0.021 8.472,-0.004 C 0.66,12.36 0.89,12.208 1.13,11.954 6.816,5.905 12.507,-0.139 18.198,-6.181 c 0.031,-0.031 0.074,-0.048 0.157,-0.097 0.141,0.239 0.082,0.498 0.082,0.739 0.004,5.72 0.013,11.438 -0.01,17.159 -0.002,0.588 0.132,0.753 0.733,0.745 2.422,-0.038 4.844,-0.029 7.264,-0.006 0.514,0.005 0.729,-0.073 0.727,-0.675 -0.021,-9.826 -0.018,-19.652 -0.004,-29.48 0,-0.489 -0.119,-0.637 -0.624,-0.632 -2.73,0.025 -5.46,0.02 -8.189,0.002 -0.369,-0.002 -0.605,0.119 -0.854,0.378 -5.588,5.847 -11.187,11.684 -16.782,17.527 -0.19,0.2 -0.35,0.43 -0.524,0.646 C 0.116,0.084 0.058,0.041 0,0" /></g><g
           transform="translate(422.4492,225.4863)"
           id="g24"><path
             id="path26"
             style="fill:#1889ad;fill-opacity:1;fill-rule:evenodd;stroke:none"
             d="m 0,0 c -3.82,0 -7.642,-0.004 -11.462,0.001 -1.252,0.002 -2.443,0.272 -3.562,0.84 -1.865,0.947 -2.844,2.463 -2.848,4.557 -0.012,6.645 -0.019,13.289 0.003,19.934 0.009,2.798 1.921,4.79 4.973,5.288 0.634,0.104 1.269,0.15 1.912,0.149 7.475,-0.006 14.951,0.017 22.425,-0.016 2.4,-0.01 4.446,-0.858 5.846,-2.931 0.492,-0.728 0.734,-1.534 0.735,-2.41 0.005,-1.59 -0.014,-3.181 0.012,-4.769 0.009,-0.468 -0.131,-0.598 -0.599,-0.595 -2.515,0.023 -5.031,0.026 -7.545,-10e-4 -0.523,-0.007 -0.639,0.169 -0.616,0.648 0.038,0.782 -0.01,1.567 0.018,2.349 0.016,0.431 -0.059,0.613 -0.563,0.612 -5.791,-0.019 -11.581,-0.018 -17.372,-0.002 -0.45,0 -0.546,-0.136 -0.546,-0.562 0.013,-5.149 0.013,-10.299 10e-4,-15.449 0,-0.385 0.083,-0.531 0.503,-0.531 5.838,0.014 11.676,0.013 17.514,0.001 0.395,-0.001 0.47,0.143 0.462,0.494 -0.021,0.854 0.007,1.708 -0.013,2.563 -0.008,0.362 0.094,0.498 0.478,0.496 2.588,-0.015 5.174,-0.012 7.76,-0.001 0.347,0.002 0.518,-0.066 0.514,-0.463 C 18.013,8.495 18.126,6.776 17.993,5.079 17.802,2.638 16.191,1.269 14.04,0.441 13.218,0.126 12.351,-0.005 11.463,-0.004 7.642,0.005 3.82,0 0,0" /></g><g
           transform="translate(138.5645,225.4863)"
           id="g28"><path
             id="path30"
             style="fill:#1889ad;fill-opacity:1;fill-rule:evenodd;stroke:none"
             d="m 0,0 c -5.103,0 -10.205,0.008 -15.307,-0.012 -0.537,-0.003 -0.716,0.108 -0.715,0.687 0.019,9.803 0.018,19.602 10e-4,29.402 -10e-4,0.56 0.146,0.701 0.703,0.701 10.204,-0.017 20.408,-0.017 30.612,0 0.568,0.002 0.701,-0.152 0.691,-0.701 -0.035,-1.92 -0.04,-3.844 0.003,-5.765 0.013,-0.587 -0.183,-0.68 -0.712,-0.68 -7.261,0.016 -14.523,0.004 -21.784,0.025 -0.631,0.002 -0.856,-0.129 -0.821,-0.798 0.06,-1.136 0.041,-2.278 0.006,-3.417 -0.016,-0.509 0.16,-0.63 0.647,-0.628 3.631,0.019 7.261,-0.004 10.892,0.025 0.598,0.004 0.748,-0.164 0.735,-0.751 C 4.912,16.167 4.92,14.244 4.948,12.322 4.956,11.819 4.8,11.688 4.307,11.691 0.653,11.712 -3.002,11.69 -6.656,11.715 c -0.531,0.003 -0.69,-0.13 -0.67,-0.666 0.044,-1.091 0.044,-2.186 0,-3.276 C -7.348,7.239 -7.197,7.107 -6.662,7.108 0.623,7.127 7.909,7.111 15.193,7.139 15.864,7.141 16,6.945 15.987,6.321 15.945,4.495 15.94,2.666 15.988,0.84 16.006,0.182 15.877,-0.026 15.163,-0.021 10.109,0.017 5.054,0 0,0" /></g><g
           transform="translate(461.1562,225.4863)"
           id="g32"><path
             id="path34"
             style="fill:#1889ad;fill-opacity:1;fill-rule:evenodd;stroke:none"
             d="m 0,0 c -5.103,0 -10.204,0.011 -15.307,-0.015 -0.572,-0.003 -0.696,0.162 -0.694,0.709 0.016,9.8 0.015,19.601 0.001,29.403 -0.001,0.5 0.082,0.684 0.647,0.683 10.228,-0.021 20.457,-0.018 30.684,-0.004 0.508,0 0.686,-0.087 0.674,-0.645 -0.04,-1.921 -0.04,-3.845 0,-5.765 0.013,-0.588 -0.129,-0.74 -0.729,-0.738 -7.261,0.023 -14.523,0.005 -21.784,0.032 -0.668,0.003 -0.83,-0.186 -0.801,-0.818 0.051,-1.09 0.046,-2.185 0.001,-3.275 -0.022,-0.58 0.131,-0.762 0.739,-0.757 3.607,0.03 7.214,0.003 10.821,0.027 C 4.795,18.84 4.981,18.72 4.97,18.141 4.932,16.243 4.933,14.344 4.969,12.446 4.979,11.87 4.845,11.683 4.236,11.688 0.677,11.718 -2.883,11.675 -6.442,11.724 -7.2,11.734 -7.348,11.498 -7.309,10.816 -7.252,9.846 -7.244,8.868 -7.312,7.898 -7.357,7.213 -7.099,7.106 -6.483,7.108 0.754,7.129 7.992,7.113 15.229,7.136 15.84,7.138 16.024,7.019 16.008,6.375 15.958,4.453 15.971,2.53 16.003,0.608 16.011,0.104 15.873,-0.015 15.377,-0.012 10.251,0.007 5.125,0 0,0" /></g><g
           transform="translate(81.8208,240.9004)"
           id="g36"><path
             id="path38"
             style="fill:#1889ad;fill-opacity:1;fill-rule:evenodd;stroke:none"
             d="m 0,0 c 0,4.888 0.009,9.776 -0.013,14.666 -0.003,0.563 0.151,0.706 0.706,0.698 2.468,-0.031 4.936,-0.035 7.404,0.003 0.591,0.009 0.68,-0.19 0.677,-0.714 C 8.753,11.141 8.773,7.628 8.752,4.115 8.75,3.587 8.842,3.393 9.435,3.395 c 5.719,0.025 11.439,0.023 17.158,0.003 0.528,-0.002 0.679,0.126 0.676,0.667 -0.025,3.537 0.001,7.073 -0.028,10.609 -0.004,0.571 0.16,0.696 0.706,0.69 2.468,-0.029 4.936,-0.023 7.404,-0.003 0.459,0.003 0.654,-0.056 0.653,-0.595 -0.018,-9.873 -0.017,-19.746 0,-29.62 0,-0.495 -0.171,-0.572 -0.607,-0.57 -2.515,0.019 -5.031,0.027 -7.546,-0.003 -0.526,-0.008 -0.608,0.172 -0.606,0.645 0.02,3.417 -0.013,6.835 0.03,10.252 0.01,0.716 -0.21,0.837 -0.869,0.834 -5.624,-0.028 -11.25,-0.026 -16.874,-0.002 -0.595,0.002 -0.795,-0.1 -0.787,-0.755 0.039,-3.443 0.004,-6.884 0.032,-10.324 0.006,-0.551 -0.155,-0.656 -0.67,-0.65 -2.444,0.028 -4.889,0.032 -7.333,-0.003 -0.602,-0.008 -0.796,0.109 -0.792,0.762 C 0.014,-9.779 0,-4.89 0,0" /></g><g
           transform="translate(258.1592,256.251)"
           id="g40"><path
             id="path42"
             style="fill:#1889ad;fill-opacity:1;fill-rule:evenodd;stroke:none"
             d="m 0,0 c 5.056,0 10.111,0.002 15.167,0 2.261,-0.001 4.577,-2.315 4.579,-4.581 0.004,-3.229 0.008,-6.457 -10e-4,-9.684 -0.01,-3.625 -2.092,-5.698 -5.703,-5.698 -6.884,-0.002 -13.766,-0.009 -20.649,0.014 -0.584,0.001 -0.752,-0.131 -0.747,-0.732 0.032,-3.156 0.004,-6.312 0.028,-9.468 0.003,-0.495 -0.112,-0.634 -0.619,-0.628 -2.516,0.027 -5.032,0.027 -7.548,0 -0.511,-0.006 -0.621,0.154 -0.619,0.638 0.016,5.553 0.022,11.108 -0.006,16.66 -0.003,0.615 0.23,0.67 0.735,0.67 8.306,-0.012 16.613,-0.009 24.92,-0.009 1.182,0 1.521,0.33 1.521,1.48 0,1.02 0.003,2.041 -10e-4,3.062 -0.001,0.646 -0.473,1.124 -1.133,1.154 -0.165,0.006 -0.332,10e-4 -0.498,10e-4 -8.259,0 -16.518,0.01 -24.778,-0.018 -0.652,-0.002 -0.777,0.184 -0.764,0.788 0.039,1.898 0.034,3.797 0.002,5.697 -0.01,0.526 0.122,0.671 0.664,0.668 C -10.3,-0.009 -5.15,0 0,0" /></g><g
           transform="translate(56.6851,237.3457)"
           id="g44"><path
             id="path46"
             style="fill:#1889ad;fill-opacity:1;fill-rule:evenodd;stroke:none"
             d="m 0,0 c 0,3.725 -0.011,7.45 0.012,11.175 0.003,0.504 -0.129,0.625 -0.624,0.622 -3.394,-0.024 -6.787,-0.003 -10.18,-0.024 -0.494,-0.002 -0.706,0.065 -0.693,0.641 0.041,1.968 0.029,3.938 0.006,5.907 -0.005,0.456 0.111,0.596 0.589,0.596 10.274,-0.015 20.548,-0.015 30.824,-0.001 0.46,0 0.594,-0.113 0.587,-0.583 -0.026,-1.994 -0.027,-3.987 10e-4,-5.979 0.007,-0.478 -0.138,-0.583 -0.594,-0.581 C 16.417,11.792 12.905,11.771 9.394,11.798 8.822,11.804 8.698,11.637 8.699,11.09 8.717,3.711 8.7,-3.669 8.73,-11.048 c 0.004,-0.714 -0.2,-0.839 -0.86,-0.828 -2.42,0.042 -4.841,0.031 -7.261,0.004 -0.501,-0.006 -0.624,0.127 -0.621,0.624 C 0.01,-7.499 0,-3.75 0,0" /></g><g
           transform="translate(410.915,308.8213)"
           id="g48"><path
             id="path50"
             style="fill:#1889ad;fill-opacity:1;fill-rule:evenodd;stroke:none"
             d="m 0,0 c -0.122,-2.966 -0.493,-5.905 -1.392,-8.752 -0.079,-0.251 0.003,-0.71 -0.423,-0.681 -0.397,0.028 -0.691,0.337 -0.809,0.718 -0.074,0.24 -0.088,0.527 -0.034,0.773 0.214,0.988 0.14,1.985 0.146,2.98 0.018,3.062 -0.006,6.124 0.045,9.185 0.04,2.49 -0.021,4.979 -0.071,7.467 -0.119,5.92 -3.777,10.46 -9.812,12.224 -1.955,0.571 -3.916,1.121 -5.868,1.701 -1.097,0.326 -2.131,0.793 -3.03,1.524 -1.127,0.914 -1.698,2.097 -1.644,3.539 0.075,1.945 0.913,3.628 1.916,5.255 0.103,-1.37 0.138,-2.728 0.053,-4.09 -0.027,-0.472 -0.031,-0.948 0,-1.421 0.098,-1.45 0.853,-2.424 2.201,-2.945 0.624,-0.242 1.291,-0.294 1.935,-0.443 3.817,-0.881 7.595,-1.911 10.945,-4.032 C -1.567,20.296 0.409,16.316 0.326,11.307 0.265,7.537 0.156,3.768 0,0 m -9.586,-13.073 c -1.199,2.586 -1.643,5.22 -1.66,7.955 -0.017,2.757 0.414,5.484 0.488,8.235 0.015,0.565 0.002,1.132 0.002,1.747 2.209,-2.618 2.89,-12.984 1.17,-17.937 m -24.552,39.885 c -1.33,-0.821 -2.822,-1.21 -4.309,-1.611 -2.543,-0.685 -5.038,-1.489 -7.393,-2.699 -3.912,-2.011 -5.927,-5.288 -6.55,-9.555 -0.541,-3.71 -0.253,-7.434 -0.266,-11.153 -0.016,-4.446 -0.003,-8.892 -0.076,-13.347 -0.556,1.262 -0.882,2.584 -1.201,3.905 -1.171,4.841 -1.681,9.755 -1.523,14.732 0.092,2.868 0.303,5.732 0.827,8.555 0.701,3.778 2.961,6.429 6.248,8.284 2.578,1.455 5.407,2.122 8.272,2.697 0.786,0.157 1.57,0.368 2.328,0.63 3.7,1.282 4.356,3.515 4.008,6.714 -0.025,0.231 -0.071,0.459 -0.108,0.688 0.784,-1.237 1.328,-2.52 1.55,-3.908 0.27,-1.698 -0.332,-3.022 -1.807,-3.932 m -11.231,-39.109 c -0.41,1.181 -0.586,2.292 -0.745,3.406 -0.661,4.61 0.027,9.104 1.167,13.558 0.272,0.077 0.131,-0.2 0.23,-0.27 0.144,-2.908 0.555,-5.795 0.613,-8.709 0.051,-2.695 -0.211,-5.334 -1.265,-7.985 m -27.648,-14.486 h 91.441 v 82.745 h -91.441 z" /></g><g
           transform="translate(218.7158,325.7822)"
           id="g52"><path
             id="path54"
             style="fill:#1889ad;fill-opacity:1;fill-rule:evenodd;stroke:none"
             d="m 0,0 c -2.437,-0.729 -4.964,-1.015 -7.486,-1.304 -7.373,-0.849 -11.852,-7.387 -11.185,-13.936 0.304,-2.986 1.63,-5.506 3.4,-7.85 2.595,-3.438 5.816,-6.235 9.13,-8.938 0.845,-0.69 1.698,-1.371 2.704,-2.183 -1.63,0.012 -3.025,0.349 -4.369,0.859 -5.499,2.094 -10.052,5.446 -13.514,10.237 -1.981,2.742 -2.175,5.794 -1.539,8.973 0.879,4.403 2.679,8.375 5.622,11.8 1.992,2.32 4.538,3.516 7.562,3.745 2.363,0.18 4.728,0.34 7.09,0.531 C 0.246,2.163 2.032,3.692 2.857,6.385 2.892,6.496 2.928,6.605 2.97,6.739 4.298,3.709 3.094,0.923 0,0 m -45.675,0.569 c -0.425,-2.95 -1.698,-5.556 -3.433,-7.943 -2.522,-3.469 -5.952,-5.793 -9.763,-7.616 -2.609,-1.249 -5.322,-2.238 -8.054,-3.173 -0.202,-0.069 -0.39,-0.135 -0.604,-0.047 3.885,2.799 7.866,5.455 11.576,8.48 3.824,3.118 5.947,7.12 6.259,12.057 0.226,3.613 -1.157,6.509 -3.951,8.761 -2.066,1.666 -4.249,3.195 -6.047,5.174 -2.094,2.306 -3.272,4.959 -3.135,8.13 0.035,0.767 0.15,1.498 0.578,2.152 0.249,-0.104 0.196,-0.33 0.242,-0.499 1.161,-4.266 3.834,-7.5 7.047,-10.373 1.855,-1.658 3.916,-3.077 5.617,-4.913 2.666,-2.88 4.247,-6.155 3.668,-10.19 M -83.141,-43.744 H 8.3 V 39 h -91.441 z" /></g><g
           transform="translate(313.0186,324.1333)"
           id="g56"><path
             id="path58"
             style="fill:#1889ad;fill-opacity:1;fill-rule:evenodd;stroke:none"
             d="m 0,0 c -0.826,-6.054 -3.522,-11.257 -7.159,-16.033 -1.722,-2.259 -3.299,-4.643 -5.34,-6.649 -1.187,-1.166 -2.526,-2.102 -4.261,-2.801 0.703,1.447 1.323,2.738 1.957,4.022 2.475,5.006 5.092,9.948 7.083,15.18 1.095,2.881 2.011,5.81 2.531,8.862 0.775,4.544 -0.698,8.211 -4.038,11.299 -2.873,2.656 -6.184,4.597 -9.642,6.347 -2.223,1.125 -4.376,2.372 -6.181,4.13 -0.117,0.115 -0.226,0.236 -0.434,0.454 1.348,0.002 2.575,-0.147 3.775,-0.418 7.504,-1.692 13.703,-5.494 18.492,-11.54 C -0.208,9.055 0.648,4.737 0,0 m -37.63,-4.785 c -2.68,-3.77 -5.658,-7.318 -8.271,-11.137 -2.026,-2.962 -3.813,-6.051 -4.935,-9.485 -0.128,-0.046 -0.182,-0.01 -0.14,0.129 0.527,5.228 2.269,10.049 4.887,14.574 1.261,2.181 2.713,4.23 4.299,6.186 0.118,0.144 0.273,0.268 0.305,0.537 -5.016,1.189 -9.77,3.039 -14.087,6.036 0.842,-0.07 1.686,-0.117 2.524,-0.215 3.086,-0.361 6.105,-1.125 9.183,-1.54 3.1,-0.418 6.188,-0.479 9.273,0.119 0.089,0.017 0.183,0.015 0.357,0.028 -1.05,-1.852 -2.203,-3.554 -3.395,-5.232 m -38.652,-37.31 h 91.441 v 82.744 h -91.441 z" /></g><g
           transform="translate(212.6353,236.8184)"
           id="g60"><path
             id="path62"
             style="fill:#1889ad;fill-opacity:1;fill-rule:evenodd;stroke:none"
             d="M 0,0 C 1.79,3.336 3.545,6.606 5.367,9.999 7.207,6.634 9.001,3.353 10.836,0 Z M 25.892,-11.049 C 20.578,-1.028 15.262,8.989 9.96,19.014 9.769,19.375 9.536,19.44 9.172,19.44 6.657,19.427 4.141,19.418 1.625,19.446 1.147,19.452 0.922,19.292 0.705,18.88 -4.153,9.692 -9.027,0.512 -13.899,-8.67 c -0.439,-0.828 -0.883,-1.654 -1.342,-2.513 -3.855,3.518 -7.648,6.98 -11.527,10.517 0.351,0.038 0.579,0.066 0.806,0.086 1.621,0.135 3.199,0.428 4.6,1.316 1.6,1.016 2.593,2.41 2.596,4.374 0.006,3.325 0.013,6.647 -0.002,9.971 -0.008,1.92 -2.399,4.344 -4.316,4.346 -9.946,0.013 -19.891,0.004 -29.837,0.015 -0.43,0.001 -0.568,-0.1 -0.563,-0.547 0.024,-1.995 0.029,-3.99 -0.002,-5.983 -0.009,-0.523 0.173,-0.613 0.647,-0.611 3.443,0.02 6.883,0.011 10.325,0.011 4.581,0 9.162,0.001 13.743,0 1.071,-10e-4 1.271,-0.208 1.271,-1.293 v -2.92 c 0,-1.255 -0.229,-1.485 -1.481,-1.485 -7.928,0 -15.856,-0.005 -23.784,0.01 -0.522,0.002 -0.726,-0.084 -0.724,-0.679 0.025,-5.553 0.022,-11.109 0.004,-16.662 -0.002,-0.501 0.135,-0.632 0.631,-0.627 2.517,0.026 5.032,0.029 7.548,-0.003 0.524,-0.006 0.61,0.167 0.606,0.642 -0.02,3.156 0.001,6.313 -0.023,9.47 -0.004,0.506 0.138,0.631 0.63,0.62 1.425,-0.033 2.849,-0.028 4.273,-0.002 0.413,0.007 0.704,-0.13 1.005,-0.401 3.708,-3.324 7.427,-6.634 11.138,-9.956 0.277,-0.249 0.544,-0.391 0.937,-0.39 6.74,0.011 13.482,0.013 20.223,-0.003 0.448,-10e-4 0.667,0.158 0.869,0.539 0.563,1.069 1.185,2.104 1.758,3.168 0.175,0.323 0.356,0.47 0.756,0.47 5.673,-0.017 11.345,-0.015 17.018,-0.004 0.352,0 0.548,-0.1 0.721,-0.417 0.613,-1.122 1.267,-2.223 1.898,-3.335 0.134,-0.236 0.255,-0.398 0.584,-0.396 2.942,0.017 5.885,0.01 8.9,0.01 -0.052,0.156 -0.065,0.225 -0.095,0.283" /></g><g
           transform="translate(291.9668,236.8076)"
           id="g64"><path
             id="path66"
             style="fill:#1889ad;fill-opacity:1;fill-rule:evenodd;stroke:none"
             d="M 0,0 C 1.787,3.333 3.551,6.62 5.372,10.014 7.225,6.623 9.015,3.347 10.843,0 Z M 25.889,-11.027 C 20.577,-1.012 15.265,9.002 9.964,19.021 9.774,19.382 9.544,19.453 9.179,19.451 6.642,19.437 4.102,19.434 1.563,19.454 1.146,19.459 0.931,19.32 0.741,18.962 -4.508,9.048 -9.767,-0.86 -15.018,-10.773 c -0.082,-0.155 -0.242,-0.303 -0.147,-0.548 2.954,0 5.918,0.006 8.882,-0.009 0.333,-0.002 0.449,0.18 0.58,0.414 0.609,1.097 1.242,2.18 1.828,3.29 0.183,0.349 0.393,0.443 0.77,0.443 5.645,-0.012 11.293,-0.013 16.94,0.003 0.42,0 0.631,-0.146 0.822,-0.495 0.591,-1.079 1.215,-2.14 1.822,-3.212 0.142,-0.252 0.256,-0.449 0.627,-0.446 2.941,0.02 5.882,0.012 8.893,0.012 -0.062,0.167 -0.079,0.234 -0.11,0.294" /></g><g
           transform="translate(376.0068,236.8164)"
           id="g68"><path
             id="path70"
             style="fill:#1889ad;fill-opacity:1;fill-rule:evenodd;stroke:none"
             d="M 0,0 C 1.776,3.312 3.538,6.597 5.366,10.005 7.212,6.628 9.003,3.349 10.834,0 Z M 25.853,-10.983 C 20.553,-0.989 15.252,9.004 9.964,19.004 9.776,19.357 9.558,19.445 9.185,19.442 6.646,19.428 4.106,19.422 1.568,19.448 1.111,19.452 0.91,19.272 0.712,18.896 -4.323,9.379 -9.371,-0.132 -14.415,-9.645 c -0.284,-0.535 -0.563,-1.072 -0.884,-1.685 3.078,0 6.04,0.007 9.001,-0.01 0.373,-0.002 0.476,0.221 0.614,0.471 0.611,1.097 1.236,2.184 1.834,3.287 0.154,0.284 0.33,0.39 0.659,0.39 5.694,-0.011 11.388,-0.011 17.082,0 0.354,0.001 0.546,-0.11 0.717,-0.423 0.614,-1.122 1.266,-2.221 1.895,-3.334 0.136,-0.239 0.262,-0.393 0.589,-0.391 2.94,0.017 5.882,0.01 8.925,0.01 -0.088,0.184 -0.122,0.267 -0.164,0.347" /></g><g
           transform="translate(495.791,236.8135)"
           id="g72"><path
             id="path74"
             style="fill:#1889ad;fill-opacity:1;fill-rule:evenodd;stroke:none"
             d="M 0,0 C 1.78,3.318 3.542,6.604 5.367,10.008 7.216,6.626 9.007,3.348 10.836,0 Z M 25.772,-10.82 C 20.51,-0.888 15.237,9.04 9.982,18.979 9.778,19.364 9.54,19.447 9.148,19.445 6.633,19.431 4.118,19.426 1.604,19.448 1.167,19.453 0.931,19.32 0.725,18.932 -4.51,9.037 -9.758,-0.85 -14.997,-10.742 c -0.089,-0.168 -0.286,-0.328 -0.157,-0.585 2.94,0 5.883,0.007 8.824,-0.01 0.357,-0.002 0.492,0.177 0.637,0.441 0.605,1.098 1.238,2.181 1.828,3.288 0.17,0.317 0.36,0.42 0.712,0.419 5.672,-0.011 11.342,-0.013 17.012,0.002 0.391,0.001 0.589,-0.128 0.77,-0.458 0.604,-1.098 1.254,-2.173 1.855,-3.274 0.172,-0.316 0.367,-0.425 0.718,-0.417 0.996,0.023 1.993,0.009 2.99,0.009 h 5.728 c 0.074,0.246 -0.076,0.37 -0.148,0.507" /></g></g></g></g></svg>
