<?xml version="1.0" encoding="UTF-8" standalone="no"?>
<!-- Generator: Adobe Illustrator 19.2.1, SVG Export Plug-In . SVG Version: 6.00 Build 0)  -->

<svg
   version="1.1"
   id="layer"
   x="0px"
   y="0px"
   viewBox="0 0 700 250"
   xml:space="preserve"
   sodipodi:docname="logo-ups.svg"
   inkscape:version="1.2.1 (9c6d41e410, 2022-07-14)"
   width="700"
   height="250"
   xmlns:inkscape="http://www.inkscape.org/namespaces/inkscape"
   xmlns:sodipodi="http://sodipodi.sourceforge.net/DTD/sodipodi-0.dtd"
   xmlns="http://www.w3.org/2000/svg"
   xmlns:svg="http://www.w3.org/2000/svg"><defs
   id="defs2056" /><sodipodi:namedview
   id="namedview2054"
   pagecolor="#ffffff"
   bordercolor="#000000"
   borderopacity="0.25"
   inkscape:showpageshadow="2"
   inkscape:pageopacity="0.0"
   inkscape:pagecheckerboard="0"
   inkscape:deskcolor="#d1d1d1"
   showgrid="false"
   inkscape:zoom="1.2331288"
   inkscape:cx="221.79354"
   inkscape:cy="201.51991"
   inkscape:window-width="1920"
   inkscape:window-height="991"
   inkscape:window-x="-9"
   inkscape:window-y="-9"
   inkscape:window-maximized="1"
   inkscape:current-layer="layer" />
<style
   type="text/css"
   id="style2043">
	.st0{fill:#62003C;}
</style>
<g
   id="g2051"
   transform="matrix(1.1333333,0,0,1.1333333,-14.140003,-238.51666)">
	<circle
   class="st0"
   cx="604.40002"
   cy="236"
   r="16.9"
   id="circle2045" />
	<circle
   class="st0"
   cx="567.70001"
   cy="268.10001"
   r="10.4"
   id="circle2047" />
	<path
   class="st0"
   d="m 145.7,394.1 c 0,-8.6 -5.8,-13.7 -15.5,-13.7 h -18.8 v 41.1 h 9 v -13 h 7.2 l 8.8,13 h 10.4 l -10,-14.6 c 5.4,-2.2 8.9,-6.1 8.9,-12.8 z m -9.1,0.4 c 0,3.5 -2.6,5.8 -7,5.8 h -9 v -11.8 h 9 c 4.2,0 7,2.1 7,6 z m 62.2,2.3 c -7.2,-1.9 -8.8,-2.8 -8.8,-5.3 0,-2.1 1.9,-3.5 5.3,-3.5 3.5,0 7,1.6 10.7,3.9 l 4.6,-6.7 c -4.2,-3.2 -9.3,-5.1 -15.3,-5.1 -8.4,0 -14.4,4.9 -14.4,12.3 v 0.2 c 0,8.1 5.3,10.4 13.7,12.5 7,1.9 8.4,3 8.4,5.1 v 0.2 c 0,2.3 -2.3,3.9 -5.8,3.9 -4.6,0 -8.6,-1.9 -12.3,-4.9 l -5.3,6.5 c 4.9,4.4 11.1,6.5 17.4,6.5 8.8,0 15.1,-4.6 15.1,-12.8 v -0.2 c -0.3,-7.5 -5,-10.5 -13.3,-12.6 z m 23.2,2.1 h 18.1 v 8.6 H 222 Z M 74.9,380.1 57.3,421.4 h 9.3 l 3.7,-9.3 h 17.4 l 3.7,9.3 h 9.5 L 83.3,380.1 c -0.1,0 -8.4,0 -8.4,0 z m -1.4,24.2 5.3,-13.2 5.3,13.2 c 0.1,0 -10.6,0 -10.6,0 z M 38.2,380.4 H 21.5 v 41.1 h 9 v -12.3 h 7 c 9.3,0 16.5,-4.9 16.5,-14.4 0,-8.6 -6,-14.4 -15.8,-14.4 z m 6.5,14.6 c 0,3.5 -2.6,6.3 -7.2,6.3 h -7 v -12.8 h 7 c 4.4,0 7.2,2.3 7.2,6.5 z m 114,-14.6 h 9 v 41.1 h -9 z m 148.7,-0.3 -17.6,41.3 h 9.3 l 3.7,-9.3 h 17.4 l 3.7,9.3 h 9.5 l -17.6,-41.3 z m -1.4,24.2 5.3,-13.2 5.3,13.2 c 0.1,0 -10.6,0 -10.6,0 z m 91.9,-23.9 h -9 v 41.1 h 29.5 v -8.4 H 398 v -32.7 z m -37.2,33.4 c -7,0 -11.8,-5.8 -11.8,-12.8 v -0.2 c 0,-7 4.9,-12.8 11.8,-12.8 4.2,0 7.4,1.9 10.4,4.6 l 5.8,-6.5 c -3.7,-3.7 -8.4,-6.3 -16.2,-6.3 -12.5,0 -21.3,9.5 -21.3,21.1 0,11.8 9,21.1 21.1,21.1 7.9,0 12.5,-2.8 16.7,-7.4 l -5.8,-5.8 c -3,3.1 -6,5 -10.7,5 z m 129,-17 -9.7,-16.5 h -10.7 l 15.8,24.8 v 16.2 h 9 V 405 l 15.8,-24.6 h -10.2 z m -220.8,0 c -7.2,-1.9 -8.8,-2.8 -8.8,-5.3 0,-2.1 1.9,-3.5 5.3,-3.5 3.4,0 7,1.6 10.7,3.9 l 4.6,-6.7 c -4.2,-3.2 -9.3,-5.1 -15.3,-5.1 -8.4,0 -14.4,4.9 -14.4,12.3 v 0.2 c 0,8.1 5.3,10.4 13.7,12.5 7,1.9 8.4,3 8.4,5.1 v 0.2 c 0,2.3 -2.3,3.9 -5.8,3.9 -4.6,0 -8.6,-1.9 -12.3,-4.9 l -5.3,6.5 c 4.9,4.4 11.1,6.5 17.4,6.5 8.8,0 15.1,-4.6 15.1,-12.8 v -0.2 c -0.3,-7.5 -5,-10.5 -13.3,-12.6 z M 443.6,380.1 426,421.4 h 9.3 l 3.7,-9.3 h 17.4 l 3.7,9.3 h 9.5 L 452,380.1 c -0.1,0 -8.4,0 -8.4,0 z m -1.4,24.2 5.3,-13.2 5.3,13.2 z M 174,296.1 h 11.4 v 63.6 H 174 Z m 129,65 c 10.7,0 18.8,-3.7 26,-11.8 l 0.7,-0.7 -7.2,-6.5 -0.7,0.7 c -5.3,5.8 -11.4,8.4 -18.6,8.4 -10.7,0 -18.8,-7.4 -20.4,-18.6 h 48.5 v -0.9 c 0.2,-1.2 0.2,-2.1 0.2,-3 0,-20.2 -11.8,-33.6 -29.7,-33.6 -17.4,0 -30.4,14.2 -30.4,33.2 0,18.7 13.7,32.8 31.6,32.8 z m -1.4,-56.4 c 11.8,0 17.2,9.5 18.3,18.8 h -37.1 c 1.6,-11.1 9.3,-18.8 18.8,-18.8 z M 45.9,361.1 c 8.4,0 14.8,-3.2 20,-9.7 v 8.4 H 77 V 296.2 H 65.8 v 36.2 c 0,10.7 -7.2,18.1 -17.4,18.1 -10,0 -16,-6.5 -16,-17.4 V 296.2 H 21.3 v 39.2 c 0,15.5 9.7,25.7 24.6,25.7 z M 129,295 c -8.4,0 -15.1,3.2 -20,9.5 v -8.4 H 97.6 v 63.6 H 109 v -36.2 c 0,-10.7 7.2,-18.1 17.4,-18.1 10,0 16,6.5 16,17.4 v 36.9 h 11.1 V 320.5 C 153.6,305 143.8,295 129,295 Z m 108.1,65.2 27.6,-64 h -12.1 l -20.2,49.2 -20,-49.2 h -12.3 l 27.4,64 z m 122,-51.3 v -12.8 h -11.4 v 63.6 h 11.4 v -25.5 c 0,-16.5 9,-27.1 23.2,-27.1 h 1.9 v -11.8 h -0.9 c -10,-0.6 -18.8,4.6 -24.2,13.6 z m 149.4,-33.6 -11.4,6.3 v 14.6 h -11.8 v 10.2 h 11.8 v 36 c 0,11.8 6.5,18.3 18.3,18.3 4.2,0 7.9,-0.9 11.6,-2.8 l 0.5,-0.2 v -10.2 l -1.6,0.7 c -3,1.4 -5.3,2.1 -8.4,2.1 -6.3,0 -9.3,-3 -9.3,-9 v -34.8 h 19.5 v -10.2 h -19.3 v -21 z m 59.9,19.7 c -17.4,0 -30.4,14.2 -30.4,33.2 0,18.8 13.7,33.2 31.8,33.2 10.7,0 18.8,-3.7 26,-11.8 l 0.7,-0.7 -7.2,-6.5 -0.7,0.7 c -5.3,5.8 -11.4,8.4 -18.6,8.4 -10.7,0 -18.8,-7.4 -20.4,-18.6 h 48.5 V 332 c 0.2,-1.2 0.2,-2.1 0.2,-3 -0.2,-20.6 -12,-34 -29.9,-34 z m -18.8,28.5 c 1.6,-11.1 9,-18.8 18.8,-18.8 11.8,0 17.2,9.5 18.3,18.8 z m -107.2,17.9 v -0.2 c 0,-12.5 -12.3,-16.2 -20.4,-18.6 h -0.2 c -7.7,-2.3 -14.8,-4.4 -14.8,-9.7 0,-4.6 4.4,-7.9 10.9,-7.9 5.6,0 11.8,2.1 17.6,5.8 l 0.9,0.7 5.3,-8.8 -0.9,-0.5 c -6.5,-4.4 -15.1,-7 -22.7,-7 -13,0 -22,7.7 -22,18.6 v 0.2 c 0,12.3 12.1,15.8 21.1,18.3 8.1,2.3 14.6,4.4 14.6,10 0,5.1 -4.6,8.6 -11.6,8.6 -6.7,0 -13.9,-2.6 -20.6,-7.7 l -0.9,-0.7 -5.8,8.4 0.7,0.7 c 7,5.8 16.9,9.3 26,9.3 13.8,0 22.8,-7.9 22.8,-19.5 z m 18.1,-45.3 h 11.4 v 63.6 h -11.4 z"
   id="path2049" />
</g>
</svg>
